<?xml version="1.0" encoding="UTF-8"?>
<svg width="25px" height="25px" viewBox="0 0 25 25" version="1.1" xmlns="http://www.w3.org/2000/svg" xmlns:xlink="http://www.w3.org/1999/xlink">
    <!-- Generator: Sketch 46.2 (44496) - http://www.bohemiancoding.com/sketch -->
    <title>deportes</title>
    <desc>Created with Sketch.</desc>
    <defs>
        <linearGradient x1="98.8430006%" y1="99.8757684%" x2="35.773649%" y2="36.0121066%" id="linearGradient-1">
            <stop stop-color="#11E11E11E" stop-opacity="0.545938952" offset="0%"></stop>
            <stop stop-color="#FFFFFF" stop-opacity="0.5" offset="0%"></stop>
            <stop stop-color="#000000" stop-opacity="0.119451993" offset="100%"></stop>
        </linearGradient>
    </defs>
    <g id="Page-1" stroke="none" stroke-width="1" fill="none" fill-rule="evenodd">
        <g id="320-Footer-" transform="translate(-11.000000, -411.000000)">
            <g id="deportes" transform="translate(11.000000, 411.000000)">
                <g id="Group-2">
                    <g id="Uforia-Icon-Copy">
                        <rect id="Rectangle-5" fill="#F22723" x="0" y="0" width="25" height="25" rx="5"></rect>
                        <rect id="Rectangle-5" fill="#F22723" x="0" y="0" width="25" height="25" rx="5"></rect>
                        <rect id="Rectangle-5" fill="#00A546" x="0" y="0" width="25" height="25" rx="5"></rect>
                        <path d="M25,8.66969304 L19.8555008,3.5251938 L19.8992455,14.049347 L18.1937197,16.3153174 L16.9338079,18.5575798 L13.0029909,20.4245018 L10.5115612,20.1206541 L8.49806693,20.1206541 L8.3587475,20.1206541 L13.2380934,25 L20,25 C22.7614237,25 25,22.7614237 25,20 L25,20 L25,8.66969304 Z" id="Combined-Shape" fill-opacity="0.8" fill="url(#linearGradient-1)" style="mix-blend-mode: multiply;"></path>
                        <path d="M10.999,12.3886 C10.311,12.8466 9.282,12.8886 8.359,12.8226 C8.342,9.8796 6.745,8.1456 6.745,7.5366 C6.745,7.4216 6.84,7.3276 6.957,7.3276 C7.652,7.3276 9.65,7.6226 10.999,9.2446 L10.999,12.3886 Z M20.217,11.4116 C20.281,10.7126 20.313,9.9706 20.313,9.1806 C20.313,7.0036 20.04,4.8166 19.702,3.2926 L14.72,6.5896 C16.137,6.6806 17.192,6.8466 17.568,7.1256 L17.568,12.4746 C15.474,13.1786 13.271,13.0646 11.31,13.0646 L11.31,6.4976 C12.177,6.4996 13.01,6.5126 13.772,6.5416 L19.124,2.9996 L4.679,2.9996 C4.31,4.5256 4,6.8596 4,9.1806 C4,10.5276 4.093,11.7346 4.276,12.8266 L6.745,11.1936 L6.745,8.2226 C7.095,9.3006 8.055,10.4036 8.055,12.7986 C7.555,12.7466 7.12,12.6136 6.745,12.4746 L6.745,11.8696 L4.39,13.4286 C4.949,16.1166 6.106,18.0576 7.837,19.6056 L10.51,17.8366 C8.327,17.1396 6.745,15.0956 6.745,12.6816 C7.562,13.1816 9.971,13.4726 10.896,13.4776 C10.902,15.1876 11.111,17.2666 11.767,18.0776 C11.595,18.0656 11.425,18.0456 11.258,18.0166 L8.283,19.9866 C9.373,20.8706 10.666,21.6266 12.157,22.3266 C16.738,20.1756 19.45,17.5006 20.137,12.1396 L17.418,13.9396 C16.851,16.3216 14.711,18.0926 12.156,18.0926 C12.115,18.0926 12.074,18.0916 12.035,18.0906 C11.41,17.2506 11.31,15.5456 11.31,13.4786 C13.357,13.4786 16.114,13.4046 17.567,12.6816 C17.567,12.8506 17.558,13.0166 17.543,13.1816 L20.217,11.4116 Z" id="Page-1" fill="#FFFFFF"></path>
                    </g>
                </g>
            </g>
        </g>
    </g>
</svg>