<?xml version="1.0" encoding="UTF-8"?>
<svg width="25px" height="25px" viewBox="0 0 25 25" version="1.1" xmlns="http://www.w3.org/2000/svg" xmlns:xlink="http://www.w3.org/1999/xlink">
    <!-- Generator: Sketch 46.2 (44496) - http://www.bohemiancoding.com/sketch -->
    <title>fantasy</title>
    <desc>Created with Sketch.</desc>
    <defs></defs>
    <g id="Page-1" stroke="none" stroke-width="1" fill="none" fill-rule="evenodd">
        <g id="320-Footer-" transform="translate(-170.000000, -411.000000)">
            <g id="fantasy" transform="translate(170.000000, 411.000000)">
                <g id="Group-11">
                    <g id="Uforia-Icon-Copy-7" fill="#181818">
                        <rect id="Rectangle-5" x="0" y="0" width="25" height="25" rx="5"></rect>
                    </g>
                    <g id="Page-1" transform="translate(4.000000, 2.000000)">
                        <path d="M2.7117,11.4505 C3.4887,12.8945 5.1547,15.0225 8.5417,17.0405 C11.9287,15.0225 13.5947,12.8945 14.3717,11.4505 C14.9647,10.3585 15.2977,9.0995 15.2977,7.7855 L15.2977,0.3825 L1.7867,0.3825 L1.7867,7.8045 C1.7867,9.0995 2.1007,10.3775 2.7117,11.4505" id="Fill-1" fill="#FFFFFF"></path>
                        <path d="M5.1572,5.6104 L5.1572,0.3824 L11.9212,0.3824 L11.9212,5.6054 C11.0652,4.7494 9.8672,4.2184 8.5412,4.2184 C7.2132,4.2184 6.0132,4.7524 5.1572,5.6104 M5.1572,14.5494 C6.2612,15.5654 7.9862,16.7494 8.5422,17.0404 C9.4922,16.4784 10.7042,15.6904 11.9212,14.5344 L11.9212,12.1324 C11.0652,12.9364 9.8672,13.4364 8.5412,13.4364 C7.2132,13.4364 6.0132,12.9344 5.1572,12.1274" id="Fill-3" fill="#008F60"></path>
                        <path d="M3.5498,18.0323 L3.5568,18.0323 L3.7188,19.4033 L2.8078,19.4033 L3.5498,18.0323 Z M3.2508,17.6433 L1.8148,20.2893 L2.3398,20.2893 L2.6098,19.7883 L3.7508,19.7883 L3.8178,20.2893 L4.3308,20.2893 L3.9968,17.6433 L3.2508,17.6433 Z" id="Fill-5" fill="#008F60"></path>
                        <polygon id="Fill-7" fill="#008F60" points="7.064 17.6436 6.639 19.8546 6.624 19.8546 5.963 17.6436 5.125 17.6436 4.566 20.2896 5.072 20.2896 5.498 18.0776 5.516 18.0776 6.17 20.2896 7.011 20.2896 7.571 17.6436"></polygon>
                        <polygon id="Fill-9" fill="#008F60" points="7.9089 17.6436 7.8169 18.0776 8.5919 18.0776 8.1239 20.2896 8.6309 20.2896 9.0979 18.0776 9.8719 18.0776 9.9639 17.6436"></polygon>
                        <path d="M10.9912,18.0323 L10.9982,18.0323 L11.1602,19.4033 L10.2492,19.4033 L10.9912,18.0323 Z M10.6922,17.6433 L9.2572,20.2893 L9.7812,20.2893 L10.0512,19.7883 L11.1922,19.7883 L11.2582,20.2893 L11.7722,20.2893 L11.4392,17.6433 L10.6922,17.6433 Z" id="Fill-11" fill="#008F60"></path>
                        <path d="M12.5486,19.4463 L12.5206,19.5693 C12.4576,19.8723 12.5836,19.8943 13.0516,19.8943 C13.5126,19.8943 13.5936,19.8093 13.6566,19.5023 C13.7376,19.1253 13.5276,19.1743 13.1366,19.1533 C12.5766,19.1183 12.1196,19.1393 12.2846,18.3703 C12.4356,17.6433 12.9006,17.6233 13.5346,17.6233 C14.0726,17.6233 14.5096,17.6403 14.3616,18.3353 L14.3436,18.4203 L13.8356,18.4203 L13.8546,18.3353 C13.9136,18.0493 13.8006,18.0383 13.4456,18.0383 C12.9426,18.0383 12.8516,18.0883 12.7916,18.3703 C12.7206,18.6953 12.7846,18.7053 13.2946,18.7373 C14.0976,18.7863 14.3086,18.8293 14.1636,19.5023 C14.0086,20.2463 13.6436,20.3103 12.9636,20.3103 C12.3806,20.3103 11.8556,20.3283 12.0136,19.5693 L12.0426,19.4463 L12.5486,19.4463" id="Fill-13" fill="#008F60"></path>
                        <polygon id="Fill-15" fill="#008F60" points="15.7638 19.2738 15.5498 20.2888 15.0418 20.2888 15.2578 19.2738 14.6488 17.6438 15.2248 17.6438 15.6128 18.7718 15.6228 18.7718 16.4988 17.6438 17.0838 17.6438"></polygon>
                        <polygon id="Fill-17" fill="#008F60" points="0.8262 18.7791 2.0022 18.7791 1.9132 19.1961 0.7392 19.1961 0.5062 20.2891 0.0002 20.2891 0.5582 17.6441 2.3052 17.6441 2.2132 18.0781 0.9752 18.0781"></polygon>
                        <path d="M8.683,5.7456 L9.453,7.3936 L8.213,8.9616 L6.153,8.8356 L5.216,10.3656 L5.222,10.3756 C5.223,10.3766 6.045,11.8526 6.335,12.1426 C6.448,12.2536 6.732,12.3086 7.055,12.3416 C7.377,12.3746 7.735,12.3816 7.985,12.3816 C8.176,12.3816 8.303,12.3776 8.303,12.3776 L8.314,12.3776 L8.32,12.3676 C8.321,12.3666 9.135,11.0296 9.211,10.8136 C9.239,10.7216 9.565,10.4576 9.879,10.2296 C10.193,9.9996 10.498,9.7956 10.499,9.7956 L10.488,9.7786 L10.476,9.7946 C10.476,9.7956 10.721,9.9706 11.03,10.2296 C11.338,10.4886 11.71,10.8296 11.961,11.1586 C12.061,11.2896 12.099,11.4056 12.099,11.5076 C12.099,11.7096 11.946,11.8666 11.787,11.9736 C11.63,12.0796 11.472,12.1336 11.472,12.1346 L11.463,12.1376 L11.459,12.1466 C11.459,12.1466 11.447,12.1846 11.396,12.2496 C11.242,12.4466 10.739,12.8796 9.208,13.1256 C8.774,13.1946 8.446,13.2216 8.2,13.2216 C7.546,13.2196 7.47,13.0346 7.47,12.9416 L7.484,12.8746 L7.447,12.8566 C7.447,12.8586 7.43,12.8926 7.43,12.9416 C7.429,13.0026 7.458,13.0866 7.569,13.1506 C7.68,13.2146 7.87,13.2626 8.2,13.2626 C8.45,13.2626 8.779,13.2346 9.214,13.1656 C11.263,12.8376 11.495,12.1696 11.498,12.1596 L11.479,12.1536 L11.485,12.1726 C11.485,12.1706 12.135,11.9556 12.14,11.5076 C12.14,11.3946 12.097,11.2696 11.993,11.1336 C11.485,10.4686 10.5,9.7626 10.499,9.7616 L10.488,9.7536 L10.476,9.7616 C10.476,9.7616 10.17,9.9666 9.855,10.1976 C9.539,10.4306 9.216,10.6796 9.172,10.7996 C9.138,10.8996 8.915,11.2896 8.702,11.6506 C8.489,12.0116 8.286,12.3466 8.285,12.3476 L8.303,12.3576 L8.302,12.3376 C8.302,12.3376 8.175,12.3416 7.985,12.3416 C7.736,12.3416 7.379,12.3346 7.059,12.3016 C6.74,12.2706 6.456,12.2086 6.363,12.1146 L6.363,12.1136 L6.364,12.1146 C6.225,11.9766 5.947,11.5346 5.705,11.1306 C5.464,10.7256 5.257,10.3566 5.257,10.3556 L5.239,10.3656 L5.257,10.3766 L6.175,8.8776 L8.232,9.0036 L9.501,7.3986 L8.72,5.7286 L8.683,5.7456" id="Fill-19" fill="#181818"></path>
                        <path d="M5.3573,7.4521 C5.2413,7.7751 5.0813,7.8771 4.9143,7.8771 C4.7313,7.8781 4.5333,7.7491 4.3813,7.6191 C4.3553,7.5961 4.3223,7.5711 4.3223,7.5711 L4.3063,7.6051 C4.3093,7.6051 4.5133,7.9151 4.9143,7.9181 C5.1003,7.9191 5.2783,7.7971 5.3953,7.4661 C5.5793,6.9521 5.9743,6.4431 6.3243,6.0631 C6.6743,5.6841 6.9773,5.4341 6.9773,5.4341 L6.9523,5.4021 C6.9513,5.4041 5.7313,6.4081 5.3573,7.4521" id="Fill-21" fill="#000000"></path>
                        <path d="M9.2863,4.8908 C9.2873,4.8908 9.7843,5.0728 10.3273,5.2838 C10.8693,5.4958 11.4583,5.7378 11.6303,5.8518 C11.7983,5.9598 11.9543,6.3238 12.0623,6.6568 C12.1713,6.9908 12.2353,7.2948 12.2353,7.2958 L12.2553,7.2918 L12.2413,7.2778 C12.2403,7.2788 11.9923,7.5398 11.6463,7.8448 C11.2993,8.1508 10.8533,8.5008 10.4623,8.6748 L10.4793,8.7108 C11.2753,8.3558 12.2693,7.3068 12.2703,7.3058 L12.2773,7.2978 L12.2753,7.2868 C12.2733,7.2848 12.0213,6.0658 11.6533,5.8178 C11.2923,5.5808 9.3013,4.8528 9.3003,4.8528 L9.2863,4.8908" id="Fill-23" fill="#000000"></path>
                        <polygon id="Fill-25" fill="#181818" points="9.4769 7.3956 8.2229 8.9816 9.1909 10.8066 11.1259 10.2696 11.2589 8.1956"></polygon>
                        <path d="M6.775,5.6553 C6.775,5.6553 6.596,5.3063 6.758,4.8413 C6.758,4.8413 7.998,4.4163 8.463,4.4493 C8.463,4.4493 9.216,4.4893 9.725,4.9693 C9.725,4.9693 8.741,5.5393 8.701,5.7373 C8.701,5.7373 7.073,5.5083 6.775,5.6553" id="Fill-27" fill="#181818"></path>
                        <path d="M8.3027,12.3574 L6.3487,12.1284 L6.2357,12.7544 C6.2357,12.7544 7.7037,13.8664 9.2657,13.1194 L8.3027,12.3574 Z" id="Fill-29" fill="#181818"></path>
                        <path d="M12.9461,8.2243 C12.9461,8.2243 12.5881,7.5273 12.2351,7.3793 C12.2351,7.3793 11.7541,6.0213 11.4621,5.7873 C11.4621,5.7873 11.4891,5.5163 12.0621,6.1383 C12.0621,6.1383 13.0001,7.5883 12.9461,8.2243" id="Fill-31" fill="#181818"></path>
                        <path d="M6.1639,8.8565 L5.2399,10.3655 L4.3409,9.7445 C4.3409,9.7445 4.0779,9.0495 4.4109,7.6435 L5.4889,7.1705 L6.1639,8.8565" id="Fill-33" fill="#181818"></path>
                        <path d="M11.0391,12.5823 C11.0391,12.5823 12.0291,12.5613 12.8411,10.2363 C12.8411,10.2363 12.2061,11.1443 11.9771,11.1463 C11.9771,11.1463 11.5431,12.0003 11.0391,12.5823" id="Fill-35" fill="#181818"></path>
                        <path d="M3.8302,9.3101 C3.8982,10.2511 4.2482,11.1501 4.8532,11.9011 C5.6452,12.8821 6.7782,13.4901 8.0112,13.6241 L9.0372,13.6241 C9.9222,13.5281 10.7612,13.1871 11.4682,12.6231 C12.4242,11.8601 13.0282,10.7771 13.1872,9.5921 L13.1882,8.3501 C13.0752,7.5091 12.7372,6.7161 12.1942,6.0431 C11.2882,4.9201 9.9392,4.2911 8.5202,4.2911 C7.4582,4.2911 6.4252,4.6461 5.5792,5.3211 C4.5442,6.1471 3.9232,7.3461 3.8302,8.6371 L3.8302,9.3101 Z M5.6152,5.3661 C6.4502,4.6991 7.4712,4.3481 8.5202,4.3481 C9.9222,4.3481 11.2552,4.9701 12.1492,6.0791 C12.6852,6.7441 13.0192,7.5271 13.1302,8.3541 L13.1302,9.5881 C12.9732,10.7551 12.3772,11.8241 11.4322,12.5781 C10.7332,13.1351 9.9052,13.4721 9.0342,13.5671 L8.0142,13.5671 C6.7992,13.4351 5.6802,12.8341 4.8982,11.8651 C4.3002,11.1231 3.9552,10.2361 3.8872,9.3081 L3.8872,8.6391 C3.9802,7.3661 4.5922,6.1821 5.6152,5.3661 Z" id="Stroke-37" stroke="#008F60" stroke-width="0.5"></path>
                        <path d="M8.2512,2.3574 C8.0782,2.4724 7.8202,2.4834 7.5882,2.4664 C7.5842,1.7274 7.1832,1.2924 7.1832,1.1394 C7.1832,1.1104 7.2072,1.0864 7.2362,1.0864 C7.4112,1.0864 7.9122,1.1604 8.2512,1.5684 L8.2512,2.3574 Z M10.5662,2.1124 C10.5822,1.9364 10.5902,1.7504 10.5902,1.5514 C10.5902,1.0054 10.5212,0.4564 10.4362,0.0734 L9.1852,0.9014 C9.5412,0.9244 9.8062,0.9654 9.9002,1.0354 L9.9002,2.3794 C9.3752,2.5554 8.8212,2.5274 8.3292,2.5274 L8.3292,0.8784 C8.5472,0.8784 8.7562,0.8824 8.9472,0.8894 L10.2912,0.0004 L6.6642,0.0004 C6.5712,0.3834 6.4942,0.9694 6.4942,1.5514 C6.4942,1.8904 6.5172,2.1934 6.5632,2.4674 L7.1832,2.0574 L7.1832,1.3114 C7.2712,1.5824 7.5122,1.8594 7.5122,2.4604 C7.3862,2.4474 7.2772,2.4144 7.1832,2.3794 L7.1832,2.2274 L6.5912,2.6184 C6.7322,3.2934 7.0222,3.7814 7.4572,4.1694 L8.1282,3.7254 C7.5802,3.5504 7.1832,3.0374 7.1832,2.4314 C7.3882,2.5564 7.9932,2.6294 8.2252,2.6304 C8.2272,3.0604 8.2792,3.5824 8.4442,3.7864 C8.4012,3.7824 8.3582,3.7774 8.3162,3.7704 L7.5692,4.2654 C7.8432,4.4874 8.1672,4.6774 8.5422,4.8524 C9.6922,4.3124 10.3732,3.6414 10.5462,2.2944 L9.8632,2.7464 C9.7202,3.3444 9.1832,3.7894 8.5422,3.7894 C8.5312,3.7894 8.5212,3.7894 8.5112,3.7894 C8.3542,3.5784 8.3292,3.1504 8.3292,2.6314 C8.8432,2.6314 9.5352,2.6124 9.9002,2.4314 C9.9002,2.4734 9.8982,2.5154 9.8942,2.5564 L10.5662,2.1124 Z" id="Fill-39" fill="#FFFFFF"></path>
                    </g>
                </g>
            </g>
        </g>
    </g>
</svg>