<svg width="22" height="24" xmlns="http://www.w3.org/2000/svg"><g fill-rule="nonzero" fill="none"><path d="M21.489 12.712c-.193 5.853-4.919 10.5-10.691 10.514-.97-1.549-1.404-4.707-1.404-8.98 3.129 0 10.042-.442 12.095-1.55" fill="#1D1DEA"/><path d="M9.5 23.226C4.229 22.546.212 18.1 0 12.712c1.84.983 6.265 1.549 7.883 1.549.107 2.322.32 6.905 1.618 8.98" fill="#ED1C24"/><path d="M2.29 12.271A6.906 6.906 0 0 1 0 11.613v-7.34c.862 1.975 2.29 4.382 2.29 7.998M8.097 5.148v6.465c-1.298.658-2.702.774-4.64.774C3.457 6.465 0 3.097 0 2.083a.469.469 0 0 1 .435-.442c2.9.105 5.641 1.365 7.631 3.507" fill="#C626B6"/><path d="M21.489 1.208v10.405c-2.701.774-6.914 1.208-12.095 1.208V0c5.868 0 10.798.325 12.095 1.208" fill="#00C473"/></g></svg>
