<?xml version="1.0" encoding="UTF-8"?>
<svg width="25px" height="25px" viewBox="0 0 25 25" version="1.1" xmlns="http://www.w3.org/2000/svg" xmlns:xlink="http://www.w3.org/1999/xlink">
    <!-- Generator: Sketch 46.2 (44496) - http://www.bohemiancoding.com/sketch -->
    <title>uforia</title>
    <desc>Created with Sketch.</desc>
    <defs>
        <linearGradient x1="98.8430006%" y1="99.8757684%" x2="35.773649%" y2="36.0121066%" id="linearGradient-1">
            <stop stop-color="#11E11E11E" stop-opacity="0.545938952" offset="0%"></stop>
            <stop stop-color="#FFFFFF" stop-opacity="0.5" offset="0%"></stop>
            <stop stop-color="#000000" stop-opacity="0.119451993" offset="100%"></stop>
        </linearGradient>
        <path d="M2.42,1.507 L0.69,1.507 L0.461,1.507 L0.461,0.77 L1.4405,0.77 L2.42,0.77 L2.42,1.507 L2.42,1.507 Z M2.42,2.6 L0.69,2.6 L0.461,2.6 L0.461,1.862 L2.42,1.862 L2.42,2.6 L2.42,2.6 Z M2.42,3.692 L0.69,3.692 L0.461,3.692 L0.461,2.956 L2.42,2.956 L2.42,3.692 L2.42,3.692 Z M2.42,4.783 L0.69,4.783 L0.461,4.783 L0.461,4.046 L2.42,4.046 L2.42,4.783 L2.42,4.783 Z M2.42,5.875 L0.69,5.875 L0.461,5.875 L0.461,5.138 L2.42,5.138 L2.42,5.875 L2.42,5.875 Z M2.42,6.969 L0.69,6.969 L0.461,6.969 L0.461,6.23 L2.42,6.23 L2.42,6.969 L2.42,6.969 Z M2.42,8.059 L0.69,8.059 L0.461,8.059 L0.461,7.322 L2.42,7.322 L2.42,8.059 L2.42,8.059 Z M2.42,9.151 L0.69,9.151 L0.461,9.151 L0.461,8.414 L2.42,8.414 L2.42,9.151 L2.42,9.151 Z M2.42,10.244 L0.69,10.244 L0.461,10.244 L0.461,9.506 L2.42,9.506 L2.42,10.244 L2.42,10.244 Z M2.4200005,11.1329678 C1.64244584,11.1079066 0.995770878,10.9989281 0.461,10.831 L0.461,10.598 L2.42,10.598 L2.42,11.133 L2.4200005,11.1329678 Z" id="path-2"></path>
        <path d="M0.025,0.23 L0.025,0.969 L0.254,0.969 L1.984,0.969 L1.984,0.23 L0.025,0.23 Z M0.025,1.322 L0.025,2.059 L0.254,2.059 L1.984,2.059 L1.984,1.322 L0.025,1.322 Z M0.025,2.414 L0.025,3.151 L0.254,3.151 L1.984,3.151 L1.984,2.414 L0.025,2.414 Z M0.025,3.506 L0.025,4.244 L0.254,4.244 L1.984,4.244 L1.984,3.506 L0.025,3.506 Z M0.025,4.598 L0.025,5.134 C0.856,5.11 1.393,5.021 1.984,4.81 L1.984,4.598 L0.025,4.598 Z" id="path-4"></path>
        <polygon id="path-6" points="16.4834 17 0.0004 17 0.0004 0.7703 16.4834 0.7703"></polygon>
        <path d="M0.587,1.692 L0.817,1.692 L2.546,1.692 L2.546,0.956 L0.587,0.956 L0.587,1.692 L0.587,1.692 Z M0.587,2.783 L0.817,2.783 L2.546,2.783 L2.546,2.046 L0.587,2.046 L0.587,2.783 L0.587,2.783 Z M0.587,3.875 L0.817,3.875 L2.546,3.875 L2.546,3.138 L0.587,3.138 L0.587,3.875 L0.587,3.875 Z M0.587,4.969 L0.817,4.969 L2.546,4.969 L2.546,4.23 L0.587,4.23 L0.587,4.969 L0.587,4.969 Z M0.587,6.059 L0.817,6.059 L2.546,6.059 L2.546,5.322 L0.587,5.322 L0.587,6.059 L0.587,6.059 Z M0.587,7.151 L2.411,7.151 C2.465,7.101 2.508,7.055 2.546,7.015 L2.546,6.414 L0.587,6.414 L0.587,7.151 L0.587,7.151 Z M1.11651914,8.243 C1.46379191,8.01432452 1.73545123,7.78259681 2.045,7.506 L0.587,7.506 L0.587,8.243 L1.11651914,8.243 L1.11651914,8.243 Z" id="path-8"></path>
    </defs>
    <g id="Page-1" stroke="none" stroke-width="1" fill="none" fill-rule="evenodd">
        <g id="320-Footer-" transform="translate(-11.000000, -451.000000)">
            <g id="uforia" transform="translate(11.000000, 451.000000)">
                <g id="Group">
                    <g id="Uforia-Icon">
                        <rect id="Rectangle-5" fill="#F22723" x="0" y="0" width="25" height="25" rx="5"></rect>
                        <rect id="Rectangle-5" fill="#F22723" x="0" y="0" width="25" height="25" rx="5"></rect>
                        <rect id="Rectangle-5" fill="#F22723" x="0" y="0" width="25" height="25" rx="5"></rect>
                        <path d="M25,11.8813706 L20.4504938,7.33186435 L20.4504938,14.3836159 L19.4645889,16.5774442 L17.7353976,19.0309936 L13.0029909,20.4245018 L10.5115612,20.1206541 L8.49806693,20.1206541 L7.97922896,20.1206541 L12.8585748,25 L20,25 C22.7614237,25 25,22.7614237 25,20 L25,11.8813706 Z" id="Combined-Shape" fill-opacity="0.8" fill="url(#linearGradient-1)" style="mix-blend-mode: multiply;"></path>
                        <g id="Page-1" transform="translate(4.000000, 4.000000)">
                            <g id="Group-3" transform="translate(9.000000, 0.230000)">
                                <mask id="mask-3" fill="white">
                                    <use xlink:href="#path-2"></use>
                                </mask>
                                <g id="Clip-2"></g>
                                <polygon id="Fill-1" fill="#FFFFFF" mask="url(#mask-3)" points="0.46 11.133 2.42 11.133 2.42 0.77 0.46 0.77"></polygon>
                            </g>
                            <g id="Group-6" transform="translate(12.000000, 6.230000)">
                                <mask id="mask-5" fill="white">
                                    <use xlink:href="#path-4"></use>
                                </mask>
                                <g id="Clip-5"></g>
                                <polygon id="Fill-4" fill="#FFFFFF" mask="url(#mask-5)" points="0.025 5.134 1.985 5.134 1.985 0.23 0.025 0.23"></polygon>
                            </g>
                            <g id="Group-12" transform="translate(0.000000, 0.230000)">
                                <g id="Group-9">
                                    <mask id="mask-7" fill="white">
                                        <use xlink:href="#path-6"></use>
                                    </mask>
                                    <g id="Clip-8"></g>
                                    <path d="M6.2954,7.6033 L6.2954,5.1173 C6.2954,1.8813 2.0794,0.7703 0.3234,0.7703 C0.1454,0.7703 0.0014,0.9103 0.0004,1.0833 L0.0004,8.9043 C0.0104,13.3703 3.7004,16.9893 8.2534,17.0003 L8.2834,17.0003 C12.4844,16.9943 15.9734,13.8993 16.4834,9.9003 C15.4294,10.9533 13.7694,11.7303 11.7634,11.7303 C7.2954,11.7303 6.2954,9.1453 6.2954,7.6033" id="Fill-7" fill="#FFFFFF" mask="url(#mask-7)"></path>
                                </g>
                                <path d="M14.5867,2.9551 L14.5867,3.6921 L14.8167,3.6921 L16.5467,3.6921 L16.5467,2.9551 L14.5867,2.9551 Z M14.5867,4.0461 L14.5867,4.7831 L14.8167,4.7831 L16.5467,4.7831 L16.5467,4.0461 L14.5867,4.0461 Z M14.5867,5.1381 L14.5867,5.8751 L14.8167,5.8751 L16.5467,5.8751 L16.5467,5.1381 L14.5867,5.1381 Z M14.5867,6.2301 L14.5867,6.9681 L14.8167,6.9681 L16.5467,6.9681 L16.5467,6.2301 L14.5867,6.2301 Z M14.5867,7.3221 L14.5867,8.0591 L14.8167,8.0591 L16.5467,8.0591 L16.5467,7.3221 L14.5867,7.3221 Z M14.5867,8.4141 L14.5867,9.1511 L16.4107,9.1511 C16.4647,9.1001 16.5077,9.0541 16.5467,9.0161 L16.5467,8.4141 L14.5867,8.4141 Z M14.5867,9.5061 L14.5867,10.2431 L15.1147,10.2431 C15.4627,10.0151 15.7347,9.7831 16.0457,9.5061 L14.5867,9.5061 Z" id="Fill-10" fill="#FFFFFF"></path>
                            </g>
                            <g id="Group-15" transform="translate(14.000000, 2.230000)">
                                <mask id="mask-9" fill="white">
                                    <use xlink:href="#path-8"></use>
                                </mask>
                                <g id="Clip-14"></g>
                                <polygon id="Fill-13" fill="#FFFFFF" mask="url(#mask-9)" points="0.587 8.243 2.547 8.243 2.547 0.955 0.587 0.955"></polygon>
                            </g>
                            <path d="M6.8987,4.276 L6.8987,5.013 L7.1287,5.013 L8.8577,5.013 L8.8577,4.276 L6.8987,4.276 Z M6.8987,5.368 L6.8987,6.105 L7.1287,6.105 L8.8577,6.105 L8.8577,5.368 L6.8987,5.368 Z M6.8987,6.46 L6.8987,7.198 L7.1287,7.198 L8.8577,7.198 L8.8577,6.46 L6.8987,6.46 Z M6.8987,7.552 L6.8987,7.833 C6.8987,7.951 6.9057,8.108 6.9307,8.289 L8.8577,8.289 L8.8577,7.552 L6.8987,7.552 Z M6.9997,8.644 C7.0567,8.875 7.1457,9.127 7.2817,9.381 L8.8577,9.381 L8.8577,8.644 L6.9997,8.644 Z M7.5017,9.736 C7.6887,9.995 7.9307,10.247 8.2457,10.473 L8.8577,10.473 L8.8577,9.736 L7.5017,9.736 Z" id="Fill-16" fill="#FFFFFF"></path>
                        </g>
                    </g>
                </g>
            </g>
        </g>
    </g>
</svg>