<svg xmlns="http://www.w3.org/2000/svg" viewBox="0 0 753.59 230.74"><defs><style>.a{fill:#fff;}</style></defs><title>logo</title><path class="a" d="M99,20.47q13.45,15,13.46,41.67c0,3.19-.07,5.64-.2,7.37H35.32q2.58,10.17,10,15.85A28.2,28.2,0,0,0,63,91a37.6,37.6,0,0,0,14.56-2.89,38.54,38.54,0,0,0,12.56-8.47L106.29,96a54.24,54.24,0,0,1-19.84,14.06,66.66,66.66,0,0,1-26,4.88q-16.95,0-29.6-6.78A47.4,47.4,0,0,1,11.29,89.05Q4.41,76.69,4.41,60.54q0-16.33,7-28.8A48.82,48.82,0,0,1,30.93,12.4Q43.49,5.53,59.64,5.53,85.54,5.53,99,20.47ZM83.56,51.37q-.41-10.56-6.78-16.94t-17-6.38a23.33,23.33,0,0,0-16.64,6.28q-6.69,6.27-8.47,17Z" transform="translate(-4.41 -5.32)"/><path class="a" d="M224,16.49q10.67,11.16,10.67,29.9v67.38H204V55.36q0-10.17-5.68-16t-15.45-5.88q-11.37.21-17.94,7.88t-6.58,19.63v52.83H127.61V6.52h30.71V25.26Q169.48,5.73,195.4,5.32,213.34,5.32,224,16.49Z" transform="translate(-4.41 -5.32)"/><path class="a" d="M275.84,88.25a15.55,15.55,0,0,1,4.29,11.36,15.93,15.93,0,0,1-4.29,11.47,15.64,15.64,0,0,1-22-.11,15.79,15.79,0,0,1-4.38-11.36,15.37,15.37,0,0,1,4.38-11.36,16,16,0,0,1,22,0Z" transform="translate(-4.41 -5.32)"/><path class="a" d="M384.5,20.57q10.67,10.88,10.66,29.8v63.4h-8.37V52q0-15.94-9-24.92t-24.92-9q-17.75.41-28.41,10.87t-12.06,28.6v56.22h-8.38V9.91h8.38V36.42a40.07,40.07,0,0,1,16.05-19.54q10.86-6.76,26.41-7.17Q373.84,9.71,384.5,20.57Z" transform="translate(-4.41 -5.32)"/><path class="a" d="M493.75,16.59a43.32,43.32,0,0,1,16.74,19.24q5.68,12.36,5.48,28.3h-90.7a47.67,47.67,0,0,0,6.17,22.13,39.18,39.18,0,0,0,15.16,14.85,43.77,43.77,0,0,0,21.53,5.28,51.61,51.61,0,0,0,19.63-3.69A42.1,42.1,0,0,0,503.22,92L508,97.42a49.72,49.72,0,0,1-17.74,12.26A58.33,58.33,0,0,1,467.73,114a51.31,51.31,0,0,1-26.12-6.68,47,47,0,0,1-18-18.54,55,55,0,0,1-6.48-26.81A54.83,54.83,0,0,1,423.67,35a47.65,47.65,0,0,1,18-18.64,50.76,50.76,0,0,1,26-6.68Q482.68,9.71,493.75,16.59ZM508.4,56.75q-1.2-17.93-12.16-28.7T467.73,17.28q-17.55,0-29.11,10.87t-13.16,28.6Z" transform="translate(-4.41 -5.32)"/><path class="a" d="M518.56,9.91h9l34.68,94.89L596.71,9.91h9l34.69,94.89L674.87,9.91h8.77L644.37,113.77h-8.58L601.3,20.87l-34.89,92.9h-8.57Z" transform="translate(-4.41 -5.32)"/><path class="a" d="M723.31,17.28q-11.56,0-18.74,4.49t-7.18,13.46a14.33,14.33,0,0,0,3.59,10,24,24,0,0,0,9,6.18c3.58,1.47,8.43,3.12,14.55,5a153.63,153.63,0,0,1,17.54,6.37,31.77,31.77,0,0,1,11.27,8.58Q758,76.89,758,86.06q0,13.75-10.36,20.83T721.92,114A58.56,58.56,0,0,1,701,110.18a51.1,51.1,0,0,1-17.14-10.57l3.78-6.37A46.82,46.82,0,0,0,703.47,103a53.42,53.42,0,0,0,18.85,3.39q12,0,19.83-5A16.18,16.18,0,0,0,750,86.86a15,15,0,0,0-3.69-10.47,26.17,26.17,0,0,0-9.27-6.48,145.37,145.37,0,0,0-15-5.18A157.31,157.31,0,0,1,705,58.45a30.68,30.68,0,0,1-11-8.38q-4.57-5.48-4.58-14.24,0-13,9.67-19.54t24.42-6.58a55.9,55.9,0,0,1,29.71,8.17l-3.59,6.78A48,48,0,0,0,723.31,17.28Z" transform="translate(-4.41 -5.32)"/><path class="a" d="M202.9,186.28h3.73l14.43,39.46,14.34-39.46h3.73l14.43,39.46,14.34-39.46h3.65l-16.33,43.19h-3.57l-14.34-38.64L222.8,229.47h-3.57Z" transform="translate(-4.41 -5.32)"/><path class="a" d="M283.86,171.72a2.91,2.91,0,0,1,.87,2.12,3,3,0,0,1-.87,2.19,2.8,2.8,0,0,1-4.06,0,3,3,0,0,1-.87-2.19,2.91,2.91,0,0,1,.87-2.12,2.8,2.8,0,0,1,4.06,0Zm-3.77,14.56h3.4v43.19h-3.4Z" transform="translate(-4.41 -5.32)"/><path class="a" d="M321.13,226.48a16.36,16.36,0,0,1-9.21,3.07,8.72,8.72,0,0,1-7.13-3c-1.66-2-2.48-5-2.48-9V190.34H296v-3h6.31V176.66h3.31v10.69H320.3v3H305.62v26.77q0,9,6.72,9a13.09,13.09,0,0,0,7.46-2.49Z" transform="translate(-4.41 -5.32)"/><path class="a" d="M365.6,190.71Q370,195.23,370,203.1v26.37h-3.49v-25.7q0-6.63-3.73-10.37t-10.36-3.73q-7.95.17-12.44,5.14t-4.47,13.52v21.14h-3.49V168h3.49v29.6a16.74,16.74,0,0,1,6.67-8.33,21.29,21.29,0,0,1,11.07-3Q361.17,186.19,365.6,190.71Z" transform="translate(-4.41 -5.32)"/><path class="a" d="M435.16,214.79l15.42,0a1.33,1.33,0,0,0,1.32-1.33V175.1a13.67,13.67,0,0,1,25.1-7.49l18,28.25,0-20.76a13.66,13.66,0,0,1,25.09-7.49l18,28.25V161.44h9.34v61a1.65,1.65,0,0,1-3,1l-32.22-50.72a4.36,4.36,0,0,0-8,2.43l0,47.3A1.65,1.65,0,0,1,502.7,224a1.72,1.72,0,0,1-1.33-.65l-32.2-50.72a4.35,4.35,0,0,0-8,2.43l0,47.66a1.32,1.32,0,0,1-1.32,1.33H435.16a25.35,25.35,0,0,1,0-50.7s13.9,0,13.9,0v9.42l-13.9,0a16,16,0,0,0,0,32Z" transform="translate(-4.41 -5.32)"/><path class="a" d="M559.51,222.4a13.66,13.66,0,0,1-25.07,7.52L516.35,201.4v21a13.65,13.65,0,0,1-25.05,7.52L473.22,201.4v22.74A11.88,11.88,0,0,1,461.32,236H435.16a37.27,37.27,0,1,1,0-74.54s13.9,0,13.9,0v9.29h-13.9a28,28,0,0,0,0,56l26.16,0a2.58,2.58,0,0,0,2.57-2.6l0-49a1.64,1.64,0,0,1,1.64-1.66,1.69,1.69,0,0,1,1.37.72l32.15,50.68a4.42,4.42,0,0,0,3.62,1.92,4.36,4.36,0,0,0,4.35-4.36V175.1a1.65,1.65,0,0,1,1.64-1.66,1.7,1.7,0,0,1,1.38.72l32.15,50.68a4.36,4.36,0,0,0,8-2.44v-61h9.3Z" transform="translate(-4.41 -5.32)"/></svg>