<svg width="135" height="30" xmlns="http://www.w3.org/2000/svg"><g fill-rule="nonzero" fill="none"><path d="M27.35 15.89c-.246 7.316-6.26 13.126-13.607 13.142-1.234-1.935-1.787-5.884-1.787-11.226 3.982 0 12.781-.551 15.394-1.935" fill="#1D1DEA"/><path d="M12.092 29.032C5.38 28.182.269 22.626 0 15.89c2.34 1.23 7.974 1.936 10.033 1.936.136 2.903.408 8.632 2.059 11.226" fill="#ED1C24"/><path d="M2.914 15.339A8.911 8.911 0 0 1 0 14.516V5.342c1.097 2.468 2.914 5.477 2.914 9.997M10.305 6.435v8.081c-1.651.823-3.438.968-5.905.968C4.4 8.08 0 3.87 0 2.604a.591.591 0 0 1 .554-.552c3.69.13 7.18 1.706 9.712 4.383" fill="#C626B6"/><path d="M27.35 1.51v13.006c-3.438.968-8.8 1.51-15.394 1.51V0c7.468 0 13.743.406 15.394 1.51" fill="#00C473"/><path fill="#6D6D6D" d="M65.558 20.545H62.4V8.487h3.157zM86.449 20.545h-3.303V8.487h3.303zM104.591 20.545h-3.166V8.487h3.166zM50.853 20.545V13.83a2.511 2.511 0 0 1 .722-1.85 2.53 2.53 0 0 1 1.842-.753 2.647 2.647 0 0 1 1.927.722c.518.49.815 1.17.822 1.881v6.706h3.302v-6.57a5.632 5.632 0 0 0-1.704-4.148 5.674 5.674 0 0 0-4.201-1.6c-3.982 0-6.05 2.738-6.05 5.748v6.57l3.34.01zM125.482 20.545V13.83a2.511 2.511 0 0 1 .738-1.868 2.53 2.53 0 0 1 1.875-.735 2.647 2.647 0 0 1 1.927.722c.517.49.814 1.17.821 1.881v6.706h3.186v-6.57a5.632 5.632 0 0 0-1.704-4.148 5.674 5.674 0 0 0-4.201-1.6c-3.982 0-6.051 2.738-6.051 5.748v6.57l3.409.01zM74.357 15.88l3.292-7.393h3.438l-5.633 12.058H73.25L67.617 8.487h3.438zM90.567 16.848a5.402 5.402 0 0 0 3.302 1.23c.825 0 1.515-.407 1.515-.968 0-1.781-5.905-1.23-5.905-5.071 0-2.333 2.195-3.697 4.671-3.697a7.352 7.352 0 0 1 4.128 1.229l-1.38 2.187a4.8 4.8 0 0 0-2.34-.823c-.97 0-1.65.407-1.65.968 0 1.51 5.904.968 5.904 5.207 0 2.332-2.34 3.696-4.856 3.696a7.866 7.866 0 0 1-4.856-1.645l1.467-2.313zM113.39 8.216a6.329 6.329 0 0 1 5.767 3.04 6.28 6.28 0 0 1 0 6.5 6.329 6.329 0 0 1-5.767 3.04 6.267 6.267 0 0 1-4.579-1.764 6.221 6.221 0 0 1-1.89-4.516c.054-3.51 2.936-6.322 6.46-6.3m0 9.59a3.152 3.152 0 0 0 2.294-.965 3.13 3.13 0 0 0 .872-2.325 3.152 3.152 0 0 0-1.528-2.877 3.176 3.176 0 0 0-3.267 0 3.152 3.152 0 0 0-1.528 2.877c-.043.86.271 1.7.868 2.322a3.152 3.152 0 0 0 2.289.968M41.646 8.487v6.707a2.55 2.55 0 0 1-.81 1.932 2.57 2.57 0 0 1-1.987.68 2.53 2.53 0 0 1-1.875-.735 2.511 2.511 0 0 1-.738-1.868V8.487h-3.214v6.571a5.631 5.631 0 0 0 1.674 4.125 5.673 5.673 0 0 0 4.153 1.633c3.982 0 6.05-2.739 6.05-5.748v-6.58h-3.253z"/></g></svg>
